<svg width="150" height="34" viewBox="0 0 150 34" fill="none" xmlns="http://www.w3.org/2000/svg">
<g clip-path="url(#clip0_67_16)">
<path d="M46.839 5.21024C46.2888 3.15954 44.668 1.54428 42.6097 0.996196C38.8789 0.000116637 23.9193 0.000115664 23.9193 0.000115664C23.9193 0.000115664 8.95979 0.000116637 5.22901 0.996196C3.17088 1.54428 1.54975 3.15954 0.999686 5.21024C0 8.92752 0 16.683 0 16.683C0 16.683 0 24.4389 0.999686 28.156C1.54975 30.2065 3.17088 31.8219 5.22901 32.3698C8.95979 33.3662 23.9193 33.3662 23.9193 33.3662C23.9193 33.3662 38.8789 33.3662 42.6097 32.3698C44.668 31.8219 46.2888 30.2065 46.839 28.156C47.8388 24.4389 47.8388 16.683 47.8388 16.683C47.8388 16.683 47.8388 8.92752 46.839 5.21024Z" fill="#ED1D24"/>
<path d="M19.1353 23.833L31.5637 16.6832L19.1353 9.53324V23.833Z" fill="white"/>
<path d="M74.7407 27.0819C75.0025 26.4007 75.1341 25.2872 75.1341 23.742V17.231C75.1341 15.7313 75.0025 14.6351 74.7407 13.9418C74.4784 13.2488 74.0165 12.902 73.3553 12.902C72.7166 12.902 72.2657 13.2488 72.0039 13.9418C71.7416 14.6351 71.6105 15.7313 71.6105 17.231V23.742C71.6105 25.2872 71.7357 26.4007 71.9869 27.0819C72.2374 27.764 72.6934 28.1045 73.3553 28.1045C74.0165 28.1045 74.4784 27.764 74.7407 27.0819ZM69.4384 30.3544C68.4913 29.7188 67.8183 28.73 67.4198 27.3887C67.0205 26.0484 66.8213 24.2644 66.8213 22.0374V19.0036C66.8213 16.754 67.0489 14.9472 67.5053 13.5839C67.9613 12.2204 68.6736 11.2265 69.6435 10.6013C70.6126 9.97663 71.8842 9.66396 73.4581 9.66396C75.0088 9.66396 76.2516 9.98232 77.1868 10.6183C78.1217 11.2545 78.8061 12.2491 79.2396 13.6009C79.6724 14.9531 79.8894 16.754 79.8894 19.0036V22.0374C79.8894 24.2644 79.6783 26.0543 79.2566 27.4061C78.8344 28.7582 78.15 29.7469 77.2038 30.3714C76.2571 30.9963 74.9746 31.309 73.3553 31.309C71.69 31.309 70.3842 30.9905 69.4384 30.3544Z" fill="#252323"/>
<path d="M142.698 13.2926C142.459 13.5881 142.298 14.071 142.219 14.7412C142.139 15.4117 142.1 16.4284 142.1 17.7919V19.2917H145.554V17.7919C145.554 16.4514 145.509 15.4345 145.418 14.7412C145.326 14.0482 145.161 13.5599 144.922 13.2756C144.682 12.9915 144.311 12.8494 143.81 12.8494C143.308 12.8494 142.937 12.9974 142.698 13.2926ZM142.1 22.087V23.1437C142.1 24.4848 142.139 25.4902 142.219 26.1603C142.298 26.8308 142.463 27.3194 142.715 27.6264C142.966 27.9328 143.353 28.0865 143.878 28.0865C144.585 28.0865 145.07 27.8137 145.332 27.2681C145.594 26.7228 145.737 25.8139 145.759 24.541L149.831 24.7798C149.854 24.9622 149.865 25.2121 149.865 25.5296C149.865 27.4615 149.335 28.9047 148.274 29.859C147.214 30.8131 145.714 31.2905 143.775 31.2905C141.449 31.2905 139.818 30.5636 138.884 29.1088C137.948 27.6551 137.48 25.4052 137.48 22.3598V18.7122C137.48 15.5763 137.965 13.2873 138.935 11.8437C139.904 10.4008 141.563 9.67926 143.913 9.67926C145.531 9.67926 146.775 9.97474 147.641 10.5654C148.508 11.1567 149.118 12.0771 149.472 13.3265C149.825 14.5765 150.002 16.3038 150.002 18.5078V22.087H142.1Z" fill="#252323"/>
<path d="M57.942 21.6958L52.5708 2.36833H57.2576L59.1391 11.1288C59.6183 13.2881 59.9716 15.1287 60.1996 16.6508H60.3366C60.4961 15.5602 60.8497 13.7311 61.3971 11.163L63.3471 2.36833H68.0339L62.5946 21.6958V30.968H57.942V21.6958Z" fill="#252323"/>
<path d="M95.1327 10.0727V30.9679H91.4378L91.0271 28.4115H90.9247C89.921 30.3429 88.4155 31.3085 86.4088 31.3085C85.0176 31.3085 83.9914 30.8545 83.3298 29.9452C82.6683 29.0368 82.3379 27.616 82.3379 25.6844V10.0727H87.059V25.4116C87.059 26.3439 87.1617 27.0083 87.3669 27.4057C87.5721 27.8037 87.9143 28.0022 88.3931 28.0022C88.8038 28.0022 89.1972 27.8776 89.5733 27.627C89.9497 27.3772 90.2289 27.0597 90.4116 26.6731V10.0727H95.1327Z" fill="#252323"/>
<path d="M119.349 10.0727V30.9679H115.654L115.243 28.4115H115.141C114.136 30.3429 112.631 31.3085 110.625 31.3085C109.233 31.3085 108.207 30.8545 107.546 29.9452C106.884 29.0368 106.554 27.616 106.554 25.6844V10.0727H111.275V25.4116C111.275 26.3439 111.377 27.0083 111.582 27.4057C111.788 27.8037 112.13 28.0022 112.609 28.0022C113.02 28.0022 113.413 27.8776 113.789 27.627C114.166 27.3772 114.445 27.0597 114.627 26.6731V10.0727H119.349Z" fill="#252323"/>
<path d="M107.961 6.15274H103.274V30.968H98.656V6.15274H93.9692V2.36895H107.961V6.15274Z" fill="#252323"/>
<path d="M130.646 21.9361C130.646 23.4588 130.583 24.6519 130.458 25.5151C130.333 26.3793 130.122 26.9926 129.825 27.3558C129.529 27.7196 129.129 27.9012 128.628 27.9012C128.24 27.9012 127.881 27.8107 127.55 27.6284C127.219 27.4468 126.952 27.1742 126.746 26.8102V14.9481C126.906 14.3804 127.179 13.9144 127.567 13.5507C127.955 13.1876 128.376 13.0053 128.833 13.0053C129.312 13.0053 129.682 13.193 129.945 13.5677C130.207 13.9426 130.389 14.5732 130.492 15.4597C130.595 16.3458 130.646 17.607 130.646 19.2431V21.9361ZM134.974 13.4129C134.688 12.0953 134.226 11.1409 133.588 10.5496C132.949 9.95923 132.071 9.66359 130.954 9.66359C130.087 9.66359 129.278 9.90803 128.525 10.3963C127.773 10.8851 127.191 11.5271 126.78 12.3224H126.746L126.746 1.31217H122.196V30.9675H126.096L126.575 28.9909H126.678C127.042 29.6951 127.59 30.252 128.32 30.661C129.049 31.0699 129.859 31.2745 130.749 31.2745C132.345 31.2745 133.52 30.5415 134.272 29.0759C135.025 27.61 135.401 25.321 135.401 22.2074V18.901C135.401 16.5607 135.258 14.7313 134.974 13.4129Z" fill="#252323"/>
</g>
<defs>
<clipPath id="clip0_67_16">
<rect width="150" height="33.3661" fill="white"/>
</clipPath>
</defs>
</svg>
