<svg width="1331" height="1288" viewBox="0 0 1331 1288" fill="none" xmlns="http://www.w3.org/2000/svg">
<g opacity="0.5">
<path d="M321.621 220.745C355.996 178.738 400.663 144.635 454.366 119.409C506.258 95.036 564.316 79.9349 626.995 74.493C690.825 69.1426 755.099 73.6726 817.548 87.9231C883.173 102.625 946.102 127.482 1004.06 161.596C1061.79 195.604 1111.09 236.861 1150.51 284.146C1188.61 329.841 1215.99 379.238 1231.87 430.974C1247.76 482.711 1251.36 534.183 1242.57 583.946C1233.32 635.816 1210.73 684.389 1177.04 724.891C1142.66 766.898 1097.91 800.985 1044.34 826.195C992.475 850.564 934.393 865.695 871.579 871.127C807.748 876.491 743.473 871.96 681.026 857.697C615.409 843.009 552.489 818.16 494.543 784.048C436.794 750.096 387.596 708.799 348.137 661.384C310.034 615.689 282.654 566.292 266.768 514.556C250.882 462.82 247.286 411.373 256.096 361.744C265.356 309.877 287.938 261.307 321.628 220.799L321.621 220.745ZM319.378 219.491C177.967 392.241 255.71 645.783 493.294 785.696C730.877 925.608 1037.98 898.961 1179.29 726.198C1320.59 553.436 1242.84 299.867 1005.39 159.938C767.939 20.0084 460.695 46.6459 319.371 219.438L319.378 219.491Z" stroke="#4A3AFF" stroke-width="3.19801"/>
<path d="M263.641 278.434C293.228 231.361 333.895 191.387 384.553 159.707C433.453 129.091 489.561 107.424 551.326 95.2828C614.262 83.1316 678.742 81.1634 742.303 89.4535C809.467 97.9597 874.83 117.194 935.897 146.421C994.998 174.224 1048.84 212.04 1095.05 258.199C1137.95 301.602 1170.63 349.914 1192.11 401.878C1213.6 453.843 1222.82 506.732 1219.54 559.195C1216.14 613.507 1199.04 666.072 1169.83 711.987C1140.25 759.061 1099.58 799.034 1048.92 830.714C999.995 861.333 943.888 883.001 882.15 895.138C819.204 907.289 754.716 909.259 691.146 900.971C623.969 892.488 558.593 873.255 497.525 844.007C438.424 816.204 384.578 778.388 338.369 732.229C295.501 688.822 262.85 640.507 241.359 588.516C219.868 536.525 210.651 483.636 213.93 431.172C217.319 376.86 234.42 324.292 263.634 278.381L263.641 278.434ZM261.245 277.253C139.581 470.895 244.852 725.424 496.453 845.767C748.054 966.11 1050.66 906.689 1172.22 713.114C1293.79 519.54 1188.61 264.917 937.012 144.574C685.412 24.231 382.805 83.6523 261.215 277.23L261.245 277.253Z" stroke="#4A3AFF" stroke-width="3.19801"/>
<path d="M212.296 344.177C237.259 291.449 273.928 245.115 319.51 208.706C364.807 171.925 418.254 143.647 478.337 124.716C539.562 105.594 603.556 96.8564 667.666 98.8655C735.628 100.746 802.807 113.894 866.463 137.773C928.67 160.686 986.394 194.293 1037.03 237.078C1083 275.728 1121.12 322.838 1149.34 375.854C1175.81 425.293 1191.03 479.969 1193.92 535.975C1196.55 592.299 1185.34 648.41 1161.27 699.401C1136.28 752.121 1099.61 798.452 1054.03 834.876C1008.73 871.657 955.309 899.904 895.23 918.862C834.002 937.971 770.01 946.708 705.901 944.713C637.934 942.805 570.755 929.64 507.097 905.752C444.881 882.844 387.153 849.227 336.525 806.42C290.558 767.776 252.426 720.677 224.194 667.675C197.718 618.237 182.503 563.557 179.638 507.55C176.98 451.224 188.192 395.105 212.29 344.124L212.296 344.177ZM209.791 343.2C110 556.379 242.717 809.147 506.135 907.741C769.552 1006.34 1064.08 913.463 1163.87 700.284C1263.66 487.106 1130.74 234.419 867.399 135.787C604.057 37.1553 309.455 130.092 209.798 343.254L209.791 343.2Z" stroke="#4A3AFF" stroke-width="3.19801"/>
<path d="M168.453 417.616C187.216 360.842 218.591 309.055 260.224 266.137C302.645 222.357 353.153 187.219 408.952 162.669C467.621 136.571 530.384 120.879 594.432 116.295C662.395 111.206 730.728 117.85 796.439 135.938C861.202 153.4 922.34 182.251 976.991 221.141C1027.31 256.815 1070.4 301.718 1103.97 353.463C1135.84 402.2 1156.95 457.172 1165.9 514.713C1174.73 572.614 1169.75 631.781 1151.37 687.393C1132.55 744.133 1101.13 795.878 1059.47 838.752C1017.05 882.532 966.545 917.67 910.747 942.22C852.076 968.315 789.315 984.007 725.267 988.594C657.335 993.675 589.035 987.016 523.363 968.911C458.579 951.442 397.432 922.553 342.797 883.602C292.493 847.957 249.409 803.092 215.831 751.386C183.984 702.687 162.878 647.762 153.917 590.269C145.091 532.376 150.071 473.218 168.453 417.616V417.616ZM165.871 416.892C90.0287 648.071 249.785 896.126 522.628 970.98C795.471 1045.83 1078.11 919.132 1153.92 687.877C1229.73 456.622 1069.98 208.647 797.137 133.792C524.294 58.9383 241.691 185.743 165.882 416.972L165.871 416.892Z" stroke="#4A3AFF" stroke-width="3.19801"/>
<path d="M132.915 498.209C145.131 437.875 170.622 381.015 207.537 331.753C244.569 282.324 290.975 240.674 344.104 209.179C399.363 176.139 460.136 153.353 523.496 141.919C590.636 129.657 659.429 129.528 726.614 141.539C793.305 153.039 857.339 176.607 915.573 211.084C969.867 243.08 1017.63 285.043 1056.35 334.767C1093.59 382.287 1120.59 437.001 1135.66 495.466C1150.79 554.466 1152.34 616.133 1140.18 675.818C1127.94 736.15 1102.44 793.008 1065.53 842.277C1028.49 891.695 982.084 933.337 928.957 964.824C873.675 997.793 812.892 1020.51 749.537 1031.87C682.405 1044.15 613.617 1044.3 546.43 1032.33C479.736 1020.82 415.701 997.246 357.468 962.76C303.197 930.781 255.442 888.857 216.705 839.183C179.503 791.67 152.508 736.99 137.409 678.565C122.268 619.563 120.732 557.892 132.915 498.209V498.209ZM130.151 497.752C80.1337 744.905 266.249 985.468 545.875 1034.76C825.501 1084.04 1092.77 923.475 1142.79 676.185C1192.82 428.896 1006.7 188.47 727.099 139.205C447.503 89.9396 180.285 250.449 130.258 497.738L130.151 497.752Z" stroke="#4A3AFF" stroke-width="3.19801"/>
<path d="M106.386 585.379C111.825 522.009 130.918 460.567 162.352 405.276C193.438 350.618 235.035 302.655 284.746 264.151C335.782 224.362 393.79 194.439 455.796 175.916C587.556 136.511 729.267 147.552 853.334 206.89C911.244 234.697 963.367 273.213 1006.95 320.406C1049.37 366.092 1082.19 419.833 1103.45 478.44C1125 538.057 1133.28 601.657 1127.73 664.806C1122.3 728.178 1103.21 789.622 1071.76 844.909C1040.68 899.556 999.091 947.509 949.389 986.003C898.366 1025.83 840.364 1055.8 778.356 1074.37C646.593 1113.75 504.893 1102.71 380.818 1043.4C322.918 1015.59 270.803 977.069 227.226 929.878C184.783 884.155 151.963 830.368 130.716 771.711C109.19 712.136 100.901 648.586 106.427 585.482L106.386 585.379ZM103.694 585.264C81.1254 846.506 292.66 1076.26 576.126 1098.33C859.592 1120.4 1107.83 926.408 1130.42 665.11C1153 403.812 941.505 174.132 657.969 151.935C374.433 129.737 126.318 323.827 103.733 585.151L103.694 585.264Z" stroke="#4A3AFF" stroke-width="3.19801"/>
<path d="M89.6078 678.312C87.998 612.386 100.215 546.854 125.471 485.937C150.116 426.532 186.218 372.563 231.719 327.11C277.758 280.854 332.205 243.813 392.135 217.977C518.934 163.576 661.867 160.357 790.987 208.994C852.041 232.047 908.128 266.554 956.231 310.658C1003.76 353.997 1042.28 406.272 1069.61 464.499C1097.54 524.239 1112.74 589.135 1114.25 655.065C1115.76 720.995 1103.54 786.519 1078.37 847.474C1053.73 906.875 1017.64 960.843 972.145 1006.3C926.087 1052.52 871.626 1089.53 811.688 1115.33C684.915 1169.79 541.982 1173.05 412.854 1124.44C351.805 1101.36 295.72 1066.85 247.606 1022.75C200.091 979.415 161.568 927.15 134.235 868.938C106.205 809.211 91.0026 744.274 89.6078 678.312V678.312ZM86.9091 678.36C93.1611 951.512 328.802 1167.6 613.201 1161.1C897.601 1154.59 1123.15 927.989 1117.05 654.927C1110.94 381.864 875.198 165.815 590.769 172.297C306.339 178.778 80.6844 405.421 86.9227 678.467L86.9091 678.36Z" stroke="#4A3AFF" stroke-width="3.19801"/>
<path d="M83.1323 776.515C67.9864 659.172 93.9122 540.203 156.509 439.802C219.106 339.401 314.517 263.754 426.547 225.701C538.577 187.648 660.324 189.534 771.121 231.039C881.919 272.544 974.941 351.111 1034.4 453.403C1102.8 570.89 1121.74 710.739 1087.03 842.186C1052.32 973.632 966.823 1085.91 849.336 1154.31C731.849 1222.72 591.999 1241.65 460.553 1206.95C329.107 1172.24 216.831 1086.74 148.425 969.252C113.915 910.053 91.7079 844.499 83.1323 776.515V776.515ZM80.4712 776.856C116.649 1058.94 374.859 1258.44 656.94 1222.27C939.022 1186.09 1138.53 927.88 1102.35 645.798C1066.17 363.717 807.964 164.21 525.882 200.387C243.801 236.565 44.2937 494.775 80.4712 776.856Z" stroke="#4A3AFF" stroke-width="3.19801"/>
</g>
</svg>
