<svg width="288" height="287" viewBox="0 0 288 287" fill="none" xmlns="http://www.w3.org/2000/svg">
<path d="M273.787 194.749C256.021 171.376 233.968 151.6 208.806 136.477C161.496 108.267 77.9334 82.3323 30.2803 120.651C15.7017 132.38 -1.64935 155.052 4.16809 173.136C13.0928 200.956 69.8108 215.707 111.514 199.772C121.073 196.082 129.947 190.817 137.767 184.195" stroke="#4A3AFF" stroke-width="0.313253" stroke-miterlimit="10"/>
<path d="M266.467 210.317C251.709 184.94 232.254 162.605 209.141 144.506C165.654 110.689 85.9081 74.6763 33.9172 106.858C18.0069 116.702 -1.98418 137.068 1.55145 155.729C7.00286 184.445 61.4624 206.049 104.809 195.356C114.752 192.871 124.208 188.735 132.782 183.12" stroke="#4A3AFF" stroke-width="0.313253" stroke-miterlimit="10"/>
<path d="M257.285 224.858C245.759 197.855 229.195 173.294 208.479 152.489C169.478 113.594 94.7782 68.0484 39.205 93.594C22.2044 101.382 -0.138594 119.163 1.04514 138.12C2.9765 167.302 54.3755 195.442 98.6876 190.153C108.861 188.905 118.753 185.962 127.954 181.446" stroke="#4A3AFF" stroke-width="0.313253" stroke-miterlimit="10"/>
<path d="M246.382 238.184C238.262 209.971 224.843 183.563 206.843 160.371C172.912 116.975 104.365 62.589 46.0892 81.1174C28.2553 86.7795 3.89525 101.655 2.78161 120.62C1.05273 149.795 48.6124 184.032 93.2594 184.234C103.507 184.253 113.684 182.549 123.367 179.195" stroke="#4A3AFF" stroke-width="0.313253" stroke-miterlimit="10"/>
<path d="M233.929 250.053C229.334 221.067 219.262 193.221 204.25 168.003C175.911 120.729 114.567 58.3365 54.4534 69.5594C36.0588 72.9863 10.0634 84.7622 6.62118 103.446C1.32552 132.185 44.3138 171.983 88.5948 177.7C98.7646 178.972 109.076 178.529 119.099 176.391" stroke="#4A3AFF" stroke-width="0.313253" stroke-miterlimit="10"/>
<path d="M220.114 260.302C219.133 230.965 212.573 202.083 200.785 175.2C178.465 124.833 125.244 55.3768 64.2194 59.1541C45.5289 60.299 18.2719 68.7882 12.579 86.9038C3.75554 114.739 41.5182 159.553 84.7479 170.636C94.6841 173.15 104.972 173.979 115.182 173.089" stroke="#4A3AFF" stroke-width="0.313253" stroke-miterlimit="10"/>
<path d="M205.146 268.784C207.76 239.541 204.784 210.067 196.377 181.937C180.42 129.21 136.146 53.7413 75.1062 49.9562C56.4157 48.8036 28.3799 53.8504 20.452 71.1482C8.31089 97.7296 40.2873 146.843 81.8426 163.159C91.3935 166.873 101.499 168.961 111.74 169.335" stroke="#4A3AFF" stroke-width="0.313253" stroke-miterlimit="10"/>
<path d="M189.243 275.35C195.433 246.662 196.101 217.058 191.214 188.121C181.861 133.805 147.19 53.4611 87.0841 42.207C68.6895 38.7646 40.1942 40.3456 30.2337 56.5219C14.9152 81.4444 40.6069 134.078 79.8493 155.379C88.8718 160.24 98.6462 163.552 108.765 165.176" stroke="#4A3AFF" stroke-width="0.313253" stroke-miterlimit="10"/>
<path d="M172.656 279.921C182.329 252.202 186.634 222.895 185.342 193.565C182.717 138.533 158.186 54.5436 99.9183 35.9841C82.0922 30.3065 53.5969 28.375 41.744 43.2039C23.4895 66.0158 42.5227 121.445 78.8447 147.411C87.202 153.343 96.4943 157.831 106.335 160.69" stroke="#4A3AFF" stroke-width="0.313253" stroke-miterlimit="10"/>
<path d="M155.616 282.413C168.612 256.101 176.483 227.555 178.808 198.3C182.974 143.369 168.949 56.9967 113.391 31.4199C96.3981 23.5927 68.3779 18.1798 54.7727 31.4199C33.8782 51.8019 45.957 109.147 78.8134 139.381C86.379 146.295 95.0501 151.892 104.466 155.939" stroke="#4A3AFF" stroke-width="0.313253" stroke-miterlimit="10"/>
<path d="M138.436 282.795C154.578 258.273 165.901 230.9 171.799 202.139C182.701 148.135 179.376 60.6963 127.409 28.4606C111.498 18.6006 84.358 9.76867 69.2265 21.272C45.9412 38.967 50.8786 97.3714 79.7711 131.398C86.4286 139.192 94.3471 145.814 103.197 150.986" stroke="#4A3AFF" stroke-width="0.313253" stroke-miterlimit="10"/>
<path d="M121.35 281.066C140.383 258.714 154.984 232.94 164.369 205.122C181.806 152.863 189.29 65.7118 141.637 27.3311C127.035 15.5941 101.18 3.49887 84.7477 13.0162C59.4765 27.6971 57.2025 86.2261 81.6949 123.61C87.3436 132.162 94.3882 139.705 102.535 145.923" stroke="#4A3AFF" stroke-width="0.313253" stroke-miterlimit="10"/>
<path d="M104.544 277.242C126.183 257.396 143.841 233.606 156.574 207.148C180.295 157.435 198.417 71.826 155.857 27.9155C142.836 14.4807 118.663 -0.69086 101.195 6.7859C74.312 18.2503 64.8577 76.1017 84.5762 116.141C89.1255 125.321 95.1798 133.674 102.488 140.854" stroke="#4A3AFF" stroke-width="0.313253" stroke-miterlimit="10"/>
<path d="M88.3691 271.385C112.276 254.35 132.72 232.916 148.607 208.23C178.263 161.773 206.766 79.0766 169.93 30.2596C158.653 15.3528 136.536 -2.70824 118.282 2.54107C90.1992 10.6097 73.7048 66.8412 88.3535 109.023C91.7555 118.695 96.7572 127.728 103.15 135.744" stroke="#4A3AFF" stroke-width="0.313253" stroke-miterlimit="10"/>
<path d="M73.0659 263.589C98.8884 249.615 121.812 230.848 140.609 208.292C175.747 165.869 214.203 87.27 183.636 34.294C174.291 18.0866 154.549 -2.52904 135.78 0.438297C106.919 4.99445 83.6494 58.7804 93.0025 102.465C95.1813 112.481 99.0247 122.062 104.373 130.807" stroke="#4A3AFF" stroke-width="0.313253" stroke-miterlimit="10"/>
<path d="M58.7754 253.963C86.1161 243.27 111.171 227.469 132.603 207.404C172.679 169.616 220.503 96.3511 196.68 40.0106C189.391 22.7751 172.336 -0.106947 153.35 0.555058C124.146 1.5286 94.4432 52.0435 98.3604 96.5224C99.2857 106.728 101.918 116.706 106.148 126.04" stroke="#4A3AFF" stroke-width="0.313253" stroke-miterlimit="10"/>
<path d="M45.8091 242.654C74.2553 235.407 101.061 222.807 124.792 205.527C169.213 172.949 225.706 106.102 208.954 47.2849C203.838 29.2861 189.726 4.44927 170.794 2.77478C141.692 0.157916 106 46.6385 104.42 91.2576C104.093 101.503 105.485 111.73 108.539 121.515" stroke="#4A3AFF" stroke-width="0.313253" stroke-miterlimit="10"/>
<path d="M34.322 229.842C63.4465 226.146 91.6001 216.935 117.277 202.7C165.366 175.831 229.599 116.429 220.254 55.9999C217.388 37.5027 206.431 11.1549 187.865 7.13615C159.307 0.960028 118.172 42.7053 111.125 86.7948C109.538 96.9203 109.661 107.24 111.491 117.325" stroke="#4A3AFF" stroke-width="0.313253" stroke-miterlimit="10"/>
<path d="M24.5017 215.715C53.8607 215.63 82.9344 209.949 110.167 198.978C161.184 178.222 232.247 127.162 230.378 66.0393C229.81 47.3473 222.17 19.8313 204.235 13.5695C176.643 3.9276 130.695 40.2756 118.289 83.1891C115.471 93.0534 114.326 103.32 114.902 113.563" stroke="#4A3AFF" stroke-width="0.313253" stroke-miterlimit="10"/>
<path d="M16.4958 200.488C45.641 204.011 75.1902 201.946 103.563 194.406C156.745 180.075 233.54 138.143 239.201 77.2464C240.93 58.6168 236.733 30.3842 219.732 21.9495C193.542 8.99757 143.467 39.442 125.882 80.4863C121.875 89.9192 119.477 99.9573 118.788 110.183" stroke="#4A3AFF" stroke-width="0.313253" stroke-miterlimit="10"/>
<path d="M10.4141 184.398C38.9074 191.475 68.4877 193.061 97.5743 189.071C152.088 181.384 233.486 149.21 246.577 89.4741C250.626 71.1794 249.887 42.6119 234.023 32.1912C209.624 16.1317 156.193 40.182 133.694 78.7418C128.559 87.6132 124.947 97.2827 123.009 107.348" stroke="#4A3AFF" stroke-width="0.313253" stroke-miterlimit="10"/>
<path d="M6.36401 167.677C33.7715 178.197 62.9316 183.402 92.286 183.012C147.361 182.085 232.06 160.153 252.402 102.481C258.632 84.8325 261.435 56.4286 246.95 44.1075C224.708 25.1508 168.723 42.4642 141.66 77.9788C135.486 86.152 130.727 95.303 127.58 105.051" stroke="#4A3AFF" stroke-width="0.313253" stroke-miterlimit="10"/>
<path d="M4.39429 150.581C30.2988 164.393 58.5979 173.142 87.7775 176.36C142.549 182.217 229.304 170.854 256.576 116.118C264.925 99.365 271.202 71.5297 258.368 57.5185C238.634 35.9761 180.942 46.28 149.713 78.1964C142.568 85.5559 136.709 94.0619 132.378 103.36" stroke="#4A3AFF" stroke-width="0.313253" stroke-miterlimit="10"/>
<path d="M4.53418 133.377C28.5458 150.265 55.5549 162.424 84.117 169.203C137.759 181.742 225.246 181.135 259.037 130.16C269.379 114.584 279.036 87.7061 268.016 72.2308C251.078 48.422 192.561 51.5606 157.649 79.3882C149.657 85.8047 142.797 93.5155 137.354 102.2" stroke="#4A3AFF" stroke-width="0.313253" stroke-miterlimit="10"/>
<path d="M6.80005 116.32C28.556 136.031 53.8649 151.419 81.3753 161.664C133.07 180.698 219.997 190.846 259.777 144.413C271.949 130.207 284.83 104.739 275.804 88.0254C261.91 62.324 203.456 58.2352 165.389 81.5689C156.669 86.9548 148.912 93.7624 142.439 101.709" stroke="#4A3AFF" stroke-width="0.313253" stroke-miterlimit="10"/>
<path d="M11.1379 99.6766C30.3075 121.91 53.5337 140.29 79.5765 153.836C128.538 179.078 213.525 199.834 258.741 158.642C272.572 146.04 288.482 122.348 281.575 104.653C270.952 77.4254 213.44 66.1947 172.796 84.6685C163.483 88.9309 154.949 94.7224 147.548 101.803" stroke="#4A3AFF" stroke-width="0.313253" stroke-miterlimit="10"/>
<path d="M17.4849 83.6794C33.7772 108.104 54.5724 129.202 78.7587 145.846C124.239 176.921 206.049 207.957 255.968 172.637C271.248 161.827 289.946 140.269 285.266 121.858C278.07 93.5394 222.372 75.3226 179.758 88.6639C169.989 91.7531 160.808 96.4575 152.594 102.582" stroke="#4A3AFF" stroke-width="0.313253" stroke-miterlimit="10"/>
<path d="M25.7556 68.5935C38.9201 94.8357 56.9642 118.329 78.9224 137.816C120.244 174.242 197.615 215.099 251.498 186.181C267.985 177.334 289.199 158.237 286.816 139.389C283.148 110.37 230.113 85.4474 186.191 93.4849C176.113 95.3551 166.421 98.9012 157.516 103.976" stroke="#4A3AFF" stroke-width="0.313253" stroke-miterlimit="10"/>
<path d="M35.8174 54.637C45.6589 82.289 60.6793 107.812 80.075 129.841C116.607 171.119 188.371 221.151 245.401 199.079C262.853 192.318 286.247 175.979 286.193 156.983C286.123 127.761 236.546 96.5068 191.961 99.0536C181.732 99.6694 171.678 101.999 162.22 105.946" stroke="#4A3AFF" stroke-width="0.313253" stroke-miterlimit="10"/>
<path d="M47.5144 42.02C53.8778 70.6826 65.6476 97.8689 82.1932 122.123C113.383 167.528 178.449 226.026 237.761 211.127C255.906 206.563 281.131 193.214 283.42 174.359C286.932 145.347 241.577 108.244 197.031 105.292C186.8 104.647 176.533 105.724 166.659 108.478" stroke="#4A3AFF" stroke-width="0.313253" stroke-miterlimit="10"/>
<path d="M60.668 30.9294C63.4668 60.1557 71.8082 88.581 85.246 114.685C110.618 163.58 168.006 229.632 228.696 222.163C247.27 219.866 273.943 209.702 278.537 191.29C285.593 162.933 245.136 120.534 201.291 112.13C191.218 110.237 180.9 110.042 170.763 111.554" stroke="#4A3AFF" stroke-width="0.313253" stroke-miterlimit="10"/>
<path d="M75.0905 21.5835C74.2792 50.9308 79.063 80.1643 89.1863 107.722C108.36 159.343 157.173 231.945 218.346 231.961C237.036 231.961 264.784 225.177 271.598 207.443C282.08 180.184 247.145 133.12 204.663 119.389C194.901 116.265 184.685 114.796 174.439 115.043" stroke="#4A3AFF" stroke-width="0.313253" stroke-miterlimit="10"/>
<path d="M90.5572 14.021C86.1395 43.0494 87.2945 72.6539 93.9604 101.25C106.647 154.857 146.193 232.872 206.882 240.442C225.456 242.779 253.796 239.414 262.736 222.654C276.497 196.875 247.604 145.885 207.132 127.045C197.828 122.746 187.87 120.04 177.671 119.038" stroke="#4A3AFF" stroke-width="0.313253" stroke-miterlimit="10"/>
<path d="M106.833 8.43677C98.8841 36.7004 96.3917 66.2199 99.4896 95.4164C105.494 150.176 135.142 232.49 194.445 247.428C212.591 252 241.133 252.179 252.075 236.649C268.896 212.755 246.483 158.603 208.635 134.926C199.929 129.52 190.379 125.611 180.381 123.361" stroke="#4A3AFF" stroke-width="0.313253" stroke-miterlimit="10"/>
<path d="M123.686 4.90088C112.319 31.9711 106.214 60.9594 105.697 90.3151C104.918 145.402 124.231 230.746 181.238 252.849C198.682 259.617 226.983 263.301 239.747 249.227C259.372 227.584 243.789 171.088 209.133 142.941C201.158 136.503 192.161 131.449 182.515 127.987" stroke="#4A3AFF" stroke-width="0.313253" stroke-miterlimit="10"/>
<path d="M140.82 3.46021C126.219 28.9298 116.604 56.9479 112.488 86.0161C104.949 140.589 113.633 227.662 167.5 256.58C183.979 265.443 211.618 272.577 226.009 260.178C248.15 241.112 239.622 183.128 208.69 150.932C201.564 143.564 193.253 137.443 184.104 132.824" stroke="#4A3AFF" stroke-width="0.313253" stroke-miterlimit="10"/>
<path d="M157.999 4.13745C140.379 27.6204 127.394 54.2456 119.738 82.5889C105.556 135.814 103.438 223.3 153.373 258.643C168.645 269.461 195.193 279.937 211.002 269.399C235.323 253.199 233.984 194.631 207.241 158.852C201.076 150.665 193.581 143.57 185.069 137.862" stroke="#4A3AFF" stroke-width="0.313253" stroke-miterlimit="10"/>
<path d="M174.976 6.91821C154.605 28.058 138.448 52.8859 127.37 80.0737C106.748 131.157 93.9293 217.716 139.114 258.924C152.937 271.541 177.998 285.194 194.975 276.689C221.103 263.597 226.975 205.286 204.827 166.516C199.714 157.632 193.149 149.669 185.404 142.956" stroke="#4A3AFF" stroke-width="0.313253" stroke-miterlimit="10"/>
<path d="M191.486 11.7705C168.671 30.2455 149.583 52.8978 135.243 78.5162C108.508 126.679 85.145 211.011 124.925 257.46C137.097 271.674 160.289 288.309 178.2 281.946C205.73 272.164 218.697 215.022 201.509 173.822C197.536 164.38 192.008 155.672 185.155 148.058" stroke="#4A3AFF" stroke-width="0.313253" stroke-miterlimit="10"/>
<path d="M207.272 18.6084C182.36 34.1414 160.635 54.2772 143.257 77.9396C110.798 122.45 77.256 203.269 111.024 254.259C121.358 269.835 142.322 289.22 160.865 285.108C189.391 278.784 209.312 223.666 197.288 180.667C194.496 170.804 190.068 161.479 184.189 153.081" stroke="#4A3AFF" stroke-width="0.313253" stroke-miterlimit="10"/>
<path d="M222.092 27.3394C195.462 39.6927 171.43 57.0056 151.278 78.3527C113.562 118.54 70.3793 194.616 97.6207 249.368C105.954 266.128 124.395 287.912 143.296 286.113C172.391 283.341 198.931 231.089 192.281 186.945C190.719 176.814 187.473 167.016 182.678 157.957" stroke="#4A3AFF" stroke-width="0.313253" stroke-miterlimit="10"/>
<path d="M235.736 37.822C207.788 46.8095 181.808 61.0378 159.183 79.7464C116.857 114.996 64.6166 185.192 84.9192 242.872C91.1494 260.528 106.725 284.415 125.742 284.929C154.946 285.755 187.709 237.163 186.533 192.529C186.216 182.29 184.189 172.176 180.537 162.606" stroke="#4A3AFF" stroke-width="0.313253" stroke-miterlimit="10"/>
<path d="M247.986 49.9016C219.146 55.3879 191.615 66.3147 166.861 82.0984C120.517 111.881 60.0526 175.122 73.1127 234.866C77.1155 253.153 89.6772 278.776 108.453 281.642C137.338 286.05 175.825 241.852 180.147 197.412C181.104 187.207 180.343 176.913 177.896 166.96" stroke="#4A3AFF" stroke-width="0.313253" stroke-miterlimit="10"/>
<path d="M258.655 63.3989C229.359 65.2972 200.693 72.7589 174.189 85.3853C124.543 109.241 56.7583 164.577 62.3811 225.473C64.11 244.103 73.4241 271.082 91.7097 276.237C119.831 284.158 163.458 245.022 173.2 201.47C175.409 191.46 175.923 181.151 174.719 170.971" stroke="#4A3AFF" stroke-width="0.313253" stroke-miterlimit="10"/>
<path d="M267.588 78.103C238.28 76.3864 208.913 80.2692 181.058 89.544C128.88 107.114 54.7879 153.696 52.8877 214.826C52.3114 233.518 58.2379 261.447 75.7525 268.807C102.659 280.155 150.787 246.665 165.818 204.608C169.237 194.946 171.011 184.779 171.066 174.53" stroke="#4A3AFF" stroke-width="0.313253" stroke-miterlimit="10"/>
<path d="M274.644 93.7965C245.77 88.4892 216.149 88.7324 187.367 94.513C133.398 105.541 54.1964 142.668 44.7733 203.097C41.8996 221.587 44.3605 250.022 60.8316 259.477C86.1728 274.025 138.024 246.712 158.1 206.836C162.684 197.668 165.695 187.795 167.009 177.63" stroke="#4A3AFF" stroke-width="0.313253" stroke-miterlimit="10"/>
<path d="M279.721 110.238C251.711 101.424 222.277 98.0331 192.997 100.245C138.101 104.529 54.9127 131.64 38.1613 190.457C33.037 208.456 31.9778 236.977 47.1639 248.386C70.5271 265.933 125.345 245.201 150.172 208.098C155.852 199.561 160.064 190.134 162.633 180.208" stroke="#4A3AFF" stroke-width="0.313253" stroke-miterlimit="10"/>
<path d="M282.735 127.177C256.031 114.983 227.248 107.992 197.927 106.577C142.899 104.108 56.9689 120.783 33.154 177.1C25.8569 194.328 21.3011 222.506 34.9686 235.691C55.9954 255.941 112.947 242.148 142.143 208.37C148.823 200.595 154.151 191.755 157.906 182.217" stroke="#4A3AFF" stroke-width="0.313253" stroke-miterlimit="10"/>
<path d="M283.654 144.351C258.644 128.972 230.935 118.497 202.007 113.486C147.704 104.272 60.411 110.261 29.8208 163.222C20.4756 179.421 12.4854 206.836 24.4317 221.595C42.803 244.313 101.016 237.576 134.145 207.646C141.731 200.755 148.104 192.638 152.999 183.635" stroke="#4A3AFF" stroke-width="0.313253" stroke-miterlimit="10"/>
<path d="M282.447 161.516C259.519 143.18 233.308 129.38 205.216 120.853C152.454 105.035 65.0838 100.245 28.2245 149.055C16.9401 163.985 5.64013 190.2 15.6941 206.322C31.1449 231.128 89.7398 231.595 126.28 205.964C134.653 200.055 141.977 192.784 147.945 184.452" stroke="#4A3AFF" stroke-width="0.313253" stroke-miterlimit="10"/>
<path d="M279.145 178.401C258.642 157.389 234.326 140.473 207.497 128.556C157.072 106.375 70.9553 90.8914 28.3798 134.786C15.3431 148.221 0.920244 172.848 8.91045 190.083C21.1839 216.563 79.2881 224.266 118.717 203.323C127.752 198.485 135.913 192.167 142.859 184.631" stroke="#4A3AFF" stroke-width="0.313253" stroke-miterlimit="10"/>
</svg>
