<svg width="1728" height="260" viewBox="0 0 1728 260" fill="none" xmlns="http://www.w3.org/2000/svg">
<g clip-path="url(#clip0_297_76)">
<path fill-rule="evenodd" clip-rule="evenodd" d="M2229.6 381.514L1747.54 2.40934L1749.56 1.87938L2231.63 380.984L2229.6 381.514Z" fill="url(#paint0_radial_297_76)"/>
<path fill-rule="evenodd" clip-rule="evenodd" d="M2058.81 381.488L1637 2.38333L1639.08 1.90539L2060.89 381.01L2058.81 381.488Z" fill="url(#paint1_radial_297_76)"/>
<path fill-rule="evenodd" clip-rule="evenodd" d="M1887.99 381.46L1526.45 2.35494L1528.6 1.93378L1890.13 381.039L1887.99 381.46Z" fill="url(#paint2_radial_297_76)"/>
<path fill-rule="evenodd" clip-rule="evenodd" d="M1717.18 381.429L1415.89 2.32424L1418.09 1.96448L1719.37 381.069L1717.18 381.429Z" fill="url(#paint3_radial_297_76)"/>
<path fill-rule="evenodd" clip-rule="evenodd" d="M2121.06 50.1062H-390.811V49.0462H2121.06V50.1062Z" fill="url(#paint4_radial_297_76)"/>
<path fill-rule="evenodd" clip-rule="evenodd" d="M1546.39 381.396L1305.35 2.29135L1307.6 1.99738L1548.63 381.102L1546.39 381.396Z" fill="url(#paint5_radial_297_76)"/>
<path fill-rule="evenodd" clip-rule="evenodd" d="M1375.58 381.361L1194.8 2.25651L1197.08 2.03222L1377.86 381.137L1375.58 381.361Z" fill="url(#paint6_radial_297_76)"/>
<path fill-rule="evenodd" clip-rule="evenodd" d="M1204.8 381.325L1084.27 2.22008L1086.58 2.06864L1207.11 381.174L1204.8 381.325Z" fill="url(#paint7_radial_297_76)"/>
<path fill-rule="evenodd" clip-rule="evenodd" d="M1034 381.287L973.749 2.1825L976.078 2.10622L1036.33 381.211L1034 381.287Z" fill="url(#paint8_radial_297_76)"/>
<path fill-rule="evenodd" clip-rule="evenodd" d="M863.21 381.249V2.14436H865.544V381.249H863.21Z" fill="url(#paint9_radial_297_76)"/>
<path fill-rule="evenodd" clip-rule="evenodd" d="M692.448 381.211L752.7 2.10622L755.028 2.1825L694.776 381.287L692.448 381.211Z" fill="url(#paint10_radial_297_76)"/>
<path fill-rule="evenodd" clip-rule="evenodd" d="M521.668 381.174L642.196 2.06864L644.506 2.22008L523.979 381.325L521.668 381.174Z" fill="url(#paint11_radial_297_76)"/>
<path fill-rule="evenodd" clip-rule="evenodd" d="M350.894 381.137L531.674 2.03222L533.956 2.25651L353.176 381.361L350.894 381.137Z" fill="url(#paint12_radial_297_76)"/>
<path fill-rule="evenodd" clip-rule="evenodd" d="M180.148 381.102L421.18 1.99738L423.423 2.29135L182.391 381.396L180.148 381.102Z" fill="url(#paint13_radial_297_76)"/>
<path fill-rule="evenodd" clip-rule="evenodd" d="M9.38312 381.069L310.668 1.96448L312.863 2.32424L11.579 381.429L9.38312 381.069Z" fill="url(#paint14_radial_297_76)"/>
<path fill-rule="evenodd" clip-rule="evenodd" d="M-161.355 381.039L200.181 1.93378L202.324 2.35494L-159.213 381.46L-161.355 381.039Z" fill="url(#paint15_radial_297_76)"/>
<path fill-rule="evenodd" clip-rule="evenodd" d="M-332.115 381.01L89.6978 1.90539L91.7814 2.38333L-330.031 381.488L-332.115 381.01Z" fill="url(#paint16_radial_297_76)"/>
<path fill-rule="evenodd" clip-rule="evenodd" d="M-502.872 380.984L-20.8076 1.87938L-18.7859 2.40934L-500.85 381.514L-502.872 380.984Z" fill="url(#paint17_radial_297_76)"/>
</g>
<defs>
<radialGradient id="paint0_radial_297_76" cx="0" cy="0" r="1" gradientUnits="userSpaceOnUse" gradientTransform="translate(960.837 81.904) rotate(-88.7125) scale(103.899 748.084)">
<stop stop-color="#4A3AFF" stop-opacity="0.59"/>
<stop offset="1" stop-color="#4A3AFF" stop-opacity="0"/>
</radialGradient>
<radialGradient id="paint1_radial_297_76" cx="0" cy="0" r="1" gradientUnits="userSpaceOnUse" gradientTransform="translate(960.837 81.904) rotate(-88.7125) scale(103.899 748.084)">
<stop stop-color="#4A3AFF" stop-opacity="0.59"/>
<stop offset="1" stop-color="#4A3AFF" stop-opacity="0"/>
</radialGradient>
<radialGradient id="paint2_radial_297_76" cx="0" cy="0" r="1" gradientUnits="userSpaceOnUse" gradientTransform="translate(960.837 81.904) rotate(-88.7125) scale(103.899 748.084)">
<stop stop-color="#4A3AFF" stop-opacity="0.59"/>
<stop offset="1" stop-color="#4A3AFF" stop-opacity="0"/>
</radialGradient>
<radialGradient id="paint3_radial_297_76" cx="0" cy="0" r="1" gradientUnits="userSpaceOnUse" gradientTransform="translate(960.837 81.904) rotate(-88.7125) scale(103.899 748.084)">
<stop stop-color="#4A3AFF" stop-opacity="0.59"/>
<stop offset="1" stop-color="#4A3AFF" stop-opacity="0"/>
</radialGradient>
<radialGradient id="paint4_radial_297_76" cx="0" cy="0" r="1" gradientUnits="userSpaceOnUse" gradientTransform="translate(960.837 81.904) rotate(-88.7125) scale(103.899 748.084)">
<stop stop-color="#4A3AFF" stop-opacity="0.59"/>
<stop offset="1" stop-color="#4A3AFF" stop-opacity="0"/>
</radialGradient>
<radialGradient id="paint5_radial_297_76" cx="0" cy="0" r="1" gradientUnits="userSpaceOnUse" gradientTransform="translate(960.837 81.904) rotate(-88.7125) scale(103.899 748.084)">
<stop stop-color="#4A3AFF" stop-opacity="0.59"/>
<stop offset="1" stop-color="#4A3AFF" stop-opacity="0"/>
</radialGradient>
<radialGradient id="paint6_radial_297_76" cx="0" cy="0" r="1" gradientUnits="userSpaceOnUse" gradientTransform="translate(960.837 81.904) rotate(-88.7125) scale(103.899 748.084)">
<stop stop-color="#4A3AFF" stop-opacity="0.59"/>
<stop offset="1" stop-color="#4A3AFF" stop-opacity="0"/>
</radialGradient>
<radialGradient id="paint7_radial_297_76" cx="0" cy="0" r="1" gradientUnits="userSpaceOnUse" gradientTransform="translate(960.837 81.904) rotate(-88.7125) scale(103.899 748.084)">
<stop stop-color="#4A3AFF" stop-opacity="0.59"/>
<stop offset="1" stop-color="#4A3AFF" stop-opacity="0"/>
</radialGradient>
<radialGradient id="paint8_radial_297_76" cx="0" cy="0" r="1" gradientUnits="userSpaceOnUse" gradientTransform="translate(960.837 81.904) rotate(-88.7125) scale(103.899 748.084)">
<stop stop-color="#4A3AFF" stop-opacity="0.59"/>
<stop offset="1" stop-color="#4A3AFF" stop-opacity="0"/>
</radialGradient>
<radialGradient id="paint9_radial_297_76" cx="0" cy="0" r="1" gradientUnits="userSpaceOnUse" gradientTransform="translate(960.837 81.904) rotate(-88.7125) scale(103.899 748.084)">
<stop stop-color="#4A3AFF" stop-opacity="0.59"/>
<stop offset="1" stop-color="#4A3AFF" stop-opacity="0"/>
</radialGradient>
<radialGradient id="paint10_radial_297_76" cx="0" cy="0" r="1" gradientUnits="userSpaceOnUse" gradientTransform="translate(960.837 81.904) rotate(-88.7125) scale(103.899 748.084)">
<stop stop-color="#4A3AFF" stop-opacity="0.59"/>
<stop offset="1" stop-color="#4A3AFF" stop-opacity="0"/>
</radialGradient>
<radialGradient id="paint11_radial_297_76" cx="0" cy="0" r="1" gradientUnits="userSpaceOnUse" gradientTransform="translate(960.837 81.904) rotate(-88.7125) scale(103.899 748.084)">
<stop stop-color="#4A3AFF" stop-opacity="0.59"/>
<stop offset="1" stop-color="#4A3AFF" stop-opacity="0"/>
</radialGradient>
<radialGradient id="paint12_radial_297_76" cx="0" cy="0" r="1" gradientUnits="userSpaceOnUse" gradientTransform="translate(960.837 81.904) rotate(-88.7125) scale(103.899 748.084)">
<stop stop-color="#4A3AFF" stop-opacity="0.59"/>
<stop offset="1" stop-color="#4A3AFF" stop-opacity="0"/>
</radialGradient>
<radialGradient id="paint13_radial_297_76" cx="0" cy="0" r="1" gradientUnits="userSpaceOnUse" gradientTransform="translate(960.837 81.904) rotate(-88.7125) scale(103.899 748.084)">
<stop stop-color="#4A3AFF" stop-opacity="0.59"/>
<stop offset="1" stop-color="#4A3AFF" stop-opacity="0"/>
</radialGradient>
<radialGradient id="paint14_radial_297_76" cx="0" cy="0" r="1" gradientUnits="userSpaceOnUse" gradientTransform="translate(960.837 81.904) rotate(-88.7125) scale(103.899 748.084)">
<stop stop-color="#4A3AFF" stop-opacity="0.59"/>
<stop offset="1" stop-color="#4A3AFF" stop-opacity="0"/>
</radialGradient>
<radialGradient id="paint15_radial_297_76" cx="0" cy="0" r="1" gradientUnits="userSpaceOnUse" gradientTransform="translate(960.837 81.904) rotate(-88.7125) scale(103.899 748.084)">
<stop stop-color="#4A3AFF" stop-opacity="0.59"/>
<stop offset="1" stop-color="#4A3AFF" stop-opacity="0"/>
</radialGradient>
<radialGradient id="paint16_radial_297_76" cx="0" cy="0" r="1" gradientUnits="userSpaceOnUse" gradientTransform="translate(960.837 81.904) rotate(-88.7125) scale(103.899 748.084)">
<stop stop-color="#4A3AFF" stop-opacity="0.59"/>
<stop offset="1" stop-color="#4A3AFF" stop-opacity="0"/>
</radialGradient>
<radialGradient id="paint17_radial_297_76" cx="0" cy="0" r="1" gradientUnits="userSpaceOnUse" gradientTransform="translate(960.837 81.904) rotate(-88.7125) scale(103.899 748.084)">
<stop stop-color="#4A3AFF" stop-opacity="0.59"/>
<stop offset="1" stop-color="#4A3AFF" stop-opacity="0"/>
</radialGradient>
<clipPath id="clip0_297_76">
<rect width="2200.75" height="259.354" fill="white" transform="translate(-236)"/>
</clipPath>
</defs>
</svg>
