<svg width="1330" height="392" viewBox="0 0 1330 392" fill="none" xmlns="http://www.w3.org/2000/svg">
<mask id="mask0_297_234" style="mask-type:alpha" maskUnits="userSpaceOnUse" x="0" y="-1" width="1330" height="750">
<path d="M1 381.739C25.6716 377.777 53.7176 374.157 84.9911 371.467C181.684 363.623 278.936 366.082 375.109 378.805" stroke="#4A3AFF" stroke-width="0.7736" stroke-miterlimit="10"/>
<path d="M1.8313 348.134C26.7719 346.422 55.0134 345.321 86.4092 345.468C183.413 346.306 280.053 357.473 374.693 378.78" stroke="#4A3AFF" stroke-width="0.7736" stroke-miterlimit="10"/>
<path d="M5.69482 314.773C30.6599 315.287 58.9014 316.73 90.1505 319.665C186.693 329.209 281.947 349.001 374.302 378.707" stroke="#4A3AFF" stroke-width="0.7736" stroke-miterlimit="10"/>
<path d="M12.5164 281.878C37.4814 284.617 65.3317 288.579 96.1651 294.327C191.467 312.482 284.565 340.735 373.886 378.609" stroke="#4A3AFF" stroke-width="0.7736" stroke-miterlimit="10"/>
<path d="M22.2485 249.716C46.7001 254.607 74.2814 261.138 104.479 269.625C197.735 296.273 287.897 332.758 373.446 378.462" stroke="#4A3AFF" stroke-width="0.7736" stroke-miterlimit="10"/>
<path d="M34.8413 218.556C58.7794 225.698 85.6272 234.625 114.969 245.778C205.493 280.665 292.05 325.086 373.177 378.291" stroke="#4A3AFF" stroke-width="0.7736" stroke-miterlimit="10"/>
<path d="M50.1716 188.669C73.3762 197.939 99.3193 209.214 127.536 222.91C214.568 265.781 296.796 317.785 372.834 378.047" stroke="#4A3AFF" stroke-width="0.7736" stroke-miterlimit="10"/>
<path d="M68.1196 160.273C90.395 171.573 115.213 185.122 142.086 201.362C224.92 251.853 302.149 311.015 372.468 377.851" stroke="#4A3AFF" stroke-width="0.7736" stroke-miterlimit="10"/>
<path d="M88.5366 133.589C109.712 146.846 133.21 162.572 158.517 181.136C236.503 238.858 308.133 304.71 372.199 377.582" stroke="#4A3AFF" stroke-width="0.7736" stroke-miterlimit="10"/>
<path d="M111.252 108.862C131.18 123.953 153.162 141.709 176.709 162.474C249.21 226.957 314.644 298.976 371.906 377.313" stroke="#4A3AFF" stroke-width="0.7736" stroke-miterlimit="10"/>
<path d="M136.119 86.2388C154.58 103.066 174.9 122.754 196.417 145.525C262.843 216.254 321.563 293.847 371.588 376.995" stroke="#4A3AFF" stroke-width="0.7736" stroke-miterlimit="10"/>
<path d="M162.894 65.8896C179.79 84.3065 198.251 105.732 217.714 130.361C277.535 206.752 329.067 289.289 371.441 376.579" stroke="#4A3AFF" stroke-width="0.7736" stroke-miterlimit="10"/>
<path d="M191.38 48.1577C206.565 68.0176 223.167 91.008 240.283 117.276C292.991 198.734 336.892 285.567 371.246 376.31" stroke="#4A3AFF" stroke-width="0.7736" stroke-miterlimit="10"/>
<path d="M221.357 32.9937C234.683 54.1253 249.036 78.4854 263.781 106.196C309.012 192.049 344.979 282.474 371.074 375.943" stroke="#4A3AFF" stroke-width="0.7736" stroke-miterlimit="10"/>
<path d="M252.656 20.5693C264.05 42.8016 276.154 68.3602 288.355 97.2939C325.701 186.853 353.422 280.13 371.05 375.552" stroke="#4A3AFF" stroke-width="0.7736" stroke-miterlimit="10"/>
<path d="M284.761 10.9814C294.223 34.0942 304.004 60.7044 313.442 90.5921C342.602 183.146 361.848 278.538 370.855 375.16" stroke="#4A3AFF" stroke-width="0.7736" stroke-miterlimit="10"/>
<path d="M317.672 4.3291C325.007 28.249 332.343 55.6908 339.116 86.1898C359.911 180.992 370.566 277.737 370.903 374.794" stroke="#4A3AFF" stroke-width="0.7736" stroke-miterlimit="10"/>
<path d="M351.073 0.660645C356.134 25.1186 361 53.0006 365.083 84.1112C377.258 180.383 379.168 277.677 370.78 374.354" stroke="#4A3AFF" stroke-width="0.7736" stroke-miterlimit="10"/>
<path d="M384.694 0C387.555 24.8248 389.902 53.0004 391.174 84.3799C394.667 181.39 387.831 278.497 370.781 374.06" stroke="#4A3AFF" stroke-width="0.7736" stroke-miterlimit="10"/>
<path d="M418.144 2.29883C418.755 27.2704 418.584 55.5682 417.043 86.9233C411.849 183.818 396.358 279.884 370.83 373.497" stroke="#4A3AFF" stroke-width="0.7736" stroke-miterlimit="10"/>
<path d="M451.324 7.68018C449.686 32.6273 446.972 60.7784 442.619 91.8644C428.754 187.896 404.722 282.182 370.927 373.131" stroke="#4A3AFF" stroke-width="0.7736" stroke-miterlimit="10"/>
<path d="M483.869 15.9712C480.006 40.6737 474.773 68.4579 467.658 99.1282C445.243 193.539 412.858 285.299 371.05 372.861" stroke="#4A3AFF" stroke-width="0.7736" stroke-miterlimit="10"/>
<path d="M515.534 27.1484C509.494 51.4107 501.792 78.6324 491.963 108.422C461.185 200.45 420.701 288.941 371.196 372.397" stroke="#4A3AFF" stroke-width="0.7736" stroke-miterlimit="10"/>
<path d="M546.074 41.1382C537.858 64.7401 527.759 91.1547 515.289 119.966C476.379 208.858 428.134 293.362 371.367 372.054" stroke="#4A3AFF" stroke-width="0.7736" stroke-miterlimit="10"/>
<path d="M575.27 57.7939C564.975 80.5643 552.554 105.976 537.541 133.614C490.821 218.605 435.199 298.387 371.613 371.614" stroke="#4A3AFF" stroke-width="0.7736" stroke-miterlimit="10"/>
<path d="M602.826 76.9937C590.6 98.7612 575.929 122.95 558.471 149.071C504.319 229.585 441.763 304.111 371.856 371.394" stroke="#4A3AFF" stroke-width="0.7736" stroke-miterlimit="10"/>
<path d="M628.549 98.5898C614.367 119.183 597.593 141.954 577.86 166.412C516.712 241.743 447.729 310.358 372.076 371.1" stroke="#4A3AFF" stroke-width="0.7736" stroke-miterlimit="10"/>
<path d="M652.243 122.412C636.251 141.636 617.522 162.817 595.735 185.416C528.093 254.961 453.25 317.116 372.468 370.831" stroke="#4A3AFF" stroke-width="0.7736" stroke-miterlimit="10"/>
<path d="M673.687 148.264C656.057 165.972 635.493 185.391 611.775 205.936C538.164 269.138 458.042 324.332 372.761 370.587" stroke="#4A3AFF" stroke-width="0.7736" stroke-miterlimit="10"/>
<path d="M692.784 175.951C673.614 192.02 651.412 209.507 625.933 227.85C546.959 284.2 462.213 331.983 373.129 370.391" stroke="#4A3AFF" stroke-width="0.7736" stroke-miterlimit="10"/>
<path d="M709.239 205.3C688.749 219.559 665.055 234.992 638.036 250.988C554.329 300.032 465.641 340.025 373.471 370.294" stroke="#4A3AFF" stroke-width="0.7736" stroke-miterlimit="10"/>
<path d="M723.055 235.824C701.342 248.199 676.377 261.456 648.037 274.956C560.27 316.304 468.353 348.19 373.837 370.073" stroke="#4A3AFF" stroke-width="0.7736" stroke-miterlimit="10"/>
<path d="M734.082 267.57C711.342 277.94 685.179 288.897 655.837 299.805C564.719 333.107 470.318 356.621 374.228 369.951" stroke="#4A3AFF" stroke-width="0.7736" stroke-miterlimit="10"/>
<path d="M742.2 300.172C718.629 308.464 691.683 317.048 661.51 325.266C567.772 350.264 471.642 365.218 374.742 369.877" stroke="#4A3AFF" stroke-width="0.7736" stroke-miterlimit="10"/>
<path d="M747.359 333.362C723.152 339.525 695.546 345.591 664.64 351.118C569 367.606 471.879 373.878 374.913 369.829" stroke="#4A3AFF" stroke-width="0.7736" stroke-miterlimit="10"/>
<path d="M749.535 366.894C724.864 370.856 696.818 374.475 665.544 377.141C568.852 384.996 471.599 382.536 375.427 369.804" stroke="#4A3AFF" stroke-width="0.7736" stroke-miterlimit="10"/>
<path d="M748.68 400.474C723.764 402.211 695.498 403.311 664.126 403.165C567.115 402.314 470.469 391.148 375.818 369.853" stroke="#4A3AFF" stroke-width="0.7736" stroke-miterlimit="10"/>
<path d="M744.841 433.86C719.852 433.346 691.635 431.903 660.386 428.968C563.843 419.435 468.59 399.651 376.234 369.951" stroke="#4A3AFF" stroke-width="0.7736" stroke-miterlimit="10"/>
<path d="M738.019 466.756C713.176 464.016 685.179 460.03 654.346 454.282C559.045 436.134 465.947 407.889 376.625 370.024" stroke="#4A3AFF" stroke-width="0.7736" stroke-miterlimit="10"/>
<path d="M728.263 498.918C703.811 494.026 676.254 487.471 646.032 478.984C552.775 452.35 462.612 415.873 377.065 370.171" stroke="#4A3AFF" stroke-width="0.7736" stroke-miterlimit="10"/>
<path d="M715.695 530.053C691.732 522.911 664.909 514.008 635.567 502.855C545.048 467.958 458.492 423.538 377.358 370.342" stroke="#4A3AFF" stroke-width="0.7736" stroke-miterlimit="10"/>
<path d="M700.363 559.94C677.159 550.671 651.216 539.396 622.999 525.699C535.964 482.834 453.735 430.83 377.701 370.562" stroke="#4A3AFF" stroke-width="0.7736" stroke-miterlimit="10"/>
<path d="M682.416 588.361C660.116 577.061 635.322 563.487 608.45 547.271C525.607 496.782 448.37 437.62 378.043 370.783" stroke="#4A3AFF" stroke-width="0.7736" stroke-miterlimit="10"/>
<path d="M661.999 615.044C640.8 601.788 617.302 586.061 591.994 567.498C514.007 509.776 442.385 443.915 378.337 371.027" stroke="#4A3AFF" stroke-width="0.7736" stroke-miterlimit="10"/>
<path d="M639.259 639.771C619.429 624.681 597.422 606.9 573.826 586.135C501.327 521.659 435.893 449.649 378.63 371.321" stroke="#4A3AFF" stroke-width="0.7736" stroke-miterlimit="10"/>
<path d="M614.538 662.37C596.053 645.543 575.758 625.879 554.167 603.084C487.693 532.366 428.931 454.772 378.874 371.614" stroke="#4A3AFF" stroke-width="0.7736" stroke-miterlimit="10"/>
<path d="M587.642 682.67C570.746 664.253 552.285 642.828 532.822 618.199C473.001 541.808 421.469 459.271 379.095 371.981" stroke="#4A3AFF" stroke-width="0.7736" stroke-miterlimit="10"/>
<path d="M559.155 700.451C543.971 680.616 527.491 657.625 510.252 631.357C457.524 549.899 413.598 463.067 379.216 372.323" stroke="#4A3AFF" stroke-width="0.7736" stroke-miterlimit="10"/>
<path d="M529.178 715.64C515.852 694.508 501.499 670.123 486.755 642.413C441.52 556.569 405.553 466.152 379.461 372.69" stroke="#4A3AFF" stroke-width="0.7736" stroke-miterlimit="10"/>
<path d="M497.978 728.064C486.584 705.807 474.48 680.249 462.279 651.34C424.933 561.781 397.212 468.504 379.584 373.082" stroke="#4A3AFF" stroke-width="0.7736" stroke-miterlimit="10"/>
<path d="M465.775 737.652C456.435 714.466 446.654 687.929 437.094 658.017C407.973 565.467 388.769 470.083 379.804 373.473" stroke="#4A3AFF" stroke-width="0.7736" stroke-miterlimit="10"/>
<path d="M432.863 744.304C425.528 720.36 418.192 693.065 411.419 662.419C390.622 567.618 379.966 470.872 379.632 373.815" stroke="#4A3AFF" stroke-width="0.7736" stroke-miterlimit="10"/>
<path d="M399.365 747.973C394.303 723.515 389.437 695.633 385.354 664.498C373.228 568.228 371.367 470.943 379.803 374.28" stroke="#4A3AFF" stroke-width="0.7736" stroke-miterlimit="10"/>
<path d="M365.891 748.633C363.03 723.809 360.683 695.609 359.411 664.253C355.925 567.276 362.761 470.203 379.804 374.671" stroke="#4A3AFF" stroke-width="0.7736" stroke-miterlimit="10"/>
<path d="M332.368 746.285C331.756 721.289 331.952 693.016 333.492 661.661C338.735 564.757 354.259 468.684 379.804 375.062" stroke="#4A3AFF" stroke-width="0.7736" stroke-miterlimit="10"/>
<path d="M299.113 740.929C300.751 715.982 303.465 687.831 307.818 656.745C321.668 560.71 345.701 466.423 379.51 375.479" stroke="#4A3AFF" stroke-width="0.7736" stroke-miterlimit="10"/>
<path d="M266.667 732.638C270.53 707.96 275.738 680.151 282.878 649.481C305.286 555.068 337.671 463.307 379.486 375.748" stroke="#4A3AFF" stroke-width="0.7736" stroke-miterlimit="10"/>
<path d="M235.001 721.363C241.041 697.125 248.743 670.001 258.573 640.089C289.35 548.068 329.833 459.586 379.339 376.139" stroke="#4A3AFF" stroke-width="0.7736" stroke-miterlimit="10"/>
<path d="M204.437 707.495C212.653 683.893 222.751 657.479 235.222 628.667C274.117 539.745 322.363 455.215 379.143 376.506" stroke="#4A3AFF" stroke-width="0.7736" stroke-miterlimit="10"/>
<path d="M175.266 690.839C185.56 668.069 197.982 642.657 212.995 615.02C259.71 529.979 315.332 450.148 378.923 376.873" stroke="#4A3AFF" stroke-width="0.7736" stroke-miterlimit="10"/>
<path d="M147.71 671.64C159.935 649.872 174.606 625.683 192.065 599.562C246.216 519.048 308.773 444.522 378.679 377.239" stroke="#4A3AFF" stroke-width="0.7736" stroke-miterlimit="10"/>
<path d="M121.987 650.044C136.169 629.45 152.942 606.68 172.602 582.222C233.758 506.889 302.748 438.273 378.41 377.533" stroke="#4A3AFF" stroke-width="0.7736" stroke-miterlimit="10"/>
<path d="M98.2925 626.221C114.284 606.997 133.014 585.817 154.8 563.217C222.45 493.671 297.301 431.516 378.092 377.802" stroke="#4A3AFF" stroke-width="0.7736" stroke-miterlimit="10"/>
<path d="M76.8486 600.369C94.4782 582.662 115.018 563.242 138.76 542.697C212.365 479.487 292.488 424.292 377.774 378.046" stroke="#4A3AFF" stroke-width="0.7736" stroke-miterlimit="10"/>
<path d="M57.7769 572.707C76.9224 556.638 99.1489 539.151 124.627 520.808C203.579 464.457 288.3 416.666 377.359 378.242" stroke="#4A3AFF" stroke-width="0.7736" stroke-miterlimit="10"/>
<path d="M41.2715 543.431C61.7863 529.147 85.4799 513.714 112.499 497.743C196.204 448.695 284.893 408.701 377.065 378.438" stroke="#4A3AFF" stroke-width="0.7736" stroke-miterlimit="10"/>
<path d="M27.4812 512.81C49.1697 500.434 74.1592 487.178 102.499 473.677C190.27 432.346 282.187 400.469 376.698 378.584" stroke="#4A3AFF" stroke-width="0.7736" stroke-miterlimit="10"/>
<path d="M16.4534 481.064C39.1933 470.669 65.3565 459.736 94.6983 448.828C185.815 415.523 280.216 392.009 376.307 378.683" stroke="#4A3AFF" stroke-width="0.7736" stroke-miterlimit="10"/>
<path d="M8.33569 448.461C31.907 440.17 58.8526 431.585 89.1481 423.367C182.886 398.37 279.016 383.415 375.916 378.756" stroke="#4A3AFF" stroke-width="0.7736" stroke-miterlimit="10"/>
<path d="M3.24951 415.272C27.4565 409.108 55.0624 403.043 85.9691 397.515C181.567 381.023 278.648 374.751 375.573 378.805" stroke="#4A3AFF" stroke-width="0.7736" stroke-miterlimit="10"/>
<path d="M1 381.739C25.6716 377.777 53.7176 374.157 84.9911 371.467C181.684 363.623 278.936 366.082 375.109 378.805" stroke="#4A3AFF" stroke-width="0.7736" stroke-miterlimit="10"/>
<path d="M580.535 381.739C605.207 377.777 633.253 374.157 664.526 371.467C761.219 363.623 858.471 366.082 954.644 378.805" stroke="#8F8F8F" stroke-width="0.7736" stroke-miterlimit="10"/>
<path d="M581.366 348.134C606.307 346.422 634.548 345.321 665.944 345.468C762.949 346.306 859.588 357.473 954.228 378.78" stroke="#8F8F8F" stroke-width="0.7736" stroke-miterlimit="10"/>
<path d="M585.23 314.773C610.195 315.287 638.437 316.73 669.686 319.665C766.228 329.209 861.482 349.001 953.837 378.707" stroke="#8F8F8F" stroke-width="0.7736" stroke-miterlimit="10"/>
<path d="M592.052 281.878C617.017 284.617 644.867 288.579 675.7 294.327C771.002 312.482 864.101 340.735 953.421 378.609" stroke="#8F8F8F" stroke-width="0.7736" stroke-miterlimit="10"/>
<path d="M601.784 249.716C626.235 254.607 653.817 261.138 684.014 269.625C777.27 296.273 867.432 332.758 952.981 378.462" stroke="#8F8F8F" stroke-width="0.7736" stroke-miterlimit="10"/>
<path d="M614.376 218.556C638.314 225.698 665.162 234.625 694.504 245.778C785.028 280.665 871.585 325.086 952.713 378.291" stroke="#8F8F8F" stroke-width="0.7736" stroke-miterlimit="10"/>
<path d="M629.707 188.669C652.911 197.939 678.855 209.214 707.072 222.91C794.103 265.781 876.331 317.785 952.37 378.047" stroke="#8F8F8F" stroke-width="0.7736" stroke-miterlimit="10"/>
<path d="M647.655 160.273C669.93 171.573 694.749 185.122 721.621 201.362C804.455 251.853 881.684 311.015 952.003 377.851" stroke="#8F8F8F" stroke-width="0.7736" stroke-miterlimit="10"/>
<path d="M668.072 133.589C689.247 146.846 712.745 162.572 738.052 181.136C816.038 238.858 887.668 304.71 951.734 377.582" stroke="#8F8F8F" stroke-width="0.7736" stroke-miterlimit="10"/>
<path d="M690.787 108.862C710.715 123.953 732.697 141.709 756.244 162.474C828.745 226.957 894.179 298.976 951.441 377.313" stroke="#8F8F8F" stroke-width="0.7736" stroke-miterlimit="10"/>
<path d="M715.654 86.2388C734.115 103.066 754.435 122.754 775.952 145.525C842.378 216.254 901.098 293.847 951.123 376.995" stroke="#8F8F8F" stroke-width="0.7736" stroke-miterlimit="10"/>
<path d="M742.429 65.8896C759.325 84.3065 777.786 105.732 797.249 130.361C857.07 206.752 908.602 289.289 950.976 376.579" stroke="#8F8F8F" stroke-width="0.7736" stroke-miterlimit="10"/>
<path d="M770.916 48.1577C786.1 68.0176 802.703 91.008 819.819 117.276C872.527 198.734 916.427 285.567 950.781 376.31" stroke="#8F8F8F" stroke-width="0.7736" stroke-miterlimit="10"/>
<path d="M800.892 32.9937C814.218 54.1253 828.571 78.4854 843.316 106.196C888.547 192.049 924.514 282.474 950.609 375.943" stroke="#8F8F8F" stroke-width="0.7736" stroke-miterlimit="10"/>
<path d="M832.191 20.5693C843.585 42.8016 855.689 68.3602 867.89 97.2939C905.236 186.853 932.957 280.13 950.585 375.552" stroke="#8F8F8F" stroke-width="0.7736" stroke-miterlimit="10"/>
<path d="M864.296 10.9814C873.759 34.0942 883.539 60.7044 892.978 90.5921C922.138 183.146 941.383 278.538 950.39 375.16" stroke="#8F8F8F" stroke-width="0.7736" stroke-miterlimit="10"/>
<path d="M897.207 4.3291C904.542 28.249 911.878 55.6908 918.651 86.1898C939.446 180.992 950.101 277.737 950.438 374.794" stroke="#8F8F8F" stroke-width="0.7736" stroke-miterlimit="10"/>
<path d="M930.608 0.660645C935.669 25.1186 940.535 53.0006 944.618 84.1112C956.793 180.383 958.703 277.677 950.316 374.354" stroke="#8F8F8F" stroke-width="0.7736" stroke-miterlimit="10"/>
<path d="M964.229 0C967.09 24.8248 969.437 53.0004 970.709 84.3799C974.202 181.39 967.366 278.497 950.316 374.06" stroke="#8F8F8F" stroke-width="0.7736" stroke-miterlimit="10"/>
<path d="M997.679 2.29883C998.29 27.2704 998.119 55.5682 996.579 86.9233C991.384 183.818 975.893 279.884 950.365 373.497" stroke="#8F8F8F" stroke-width="0.7736" stroke-miterlimit="10"/>
<path d="M1030.86 7.68018C1029.22 32.6273 1026.51 60.7784 1022.15 91.8644C1008.29 187.896 984.257 282.182 950.462 373.131" stroke="#8F8F8F" stroke-width="0.7736" stroke-miterlimit="10"/>
<path d="M1063.4 15.9712C1059.54 40.6737 1054.31 68.4579 1047.19 99.1282C1024.78 193.539 992.393 285.299 950.585 372.861" stroke="#8F8F8F" stroke-width="0.7736" stroke-miterlimit="10"/>
<path d="M1095.07 27.1484C1089.03 51.4107 1081.33 78.6324 1071.5 108.422C1040.72 200.45 1000.24 288.941 950.732 372.397" stroke="#8F8F8F" stroke-width="0.7736" stroke-miterlimit="10"/>
<path d="M1125.61 41.1382C1117.39 64.7401 1107.29 91.1547 1094.82 119.966C1055.91 208.858 1007.67 293.362 950.902 372.054" stroke="#8F8F8F" stroke-width="0.7736" stroke-miterlimit="10"/>
<path d="M1154.8 57.7939C1144.51 80.5643 1132.09 105.976 1117.08 133.614C1070.36 218.605 1014.73 298.387 951.148 371.614" stroke="#8F8F8F" stroke-width="0.7736" stroke-miterlimit="10"/>
<path d="M1182.36 76.9937C1170.14 98.7612 1155.46 122.95 1138.01 149.071C1083.85 229.585 1021.3 304.111 951.392 371.394" stroke="#8F8F8F" stroke-width="0.7736" stroke-miterlimit="10"/>
<path d="M1208.08 98.5898C1193.9 119.183 1177.13 141.954 1157.4 166.412C1096.25 241.743 1027.26 310.358 951.612 371.1" stroke="#8F8F8F" stroke-width="0.7736" stroke-miterlimit="10"/>
<path d="M1231.78 122.412C1215.79 141.636 1197.06 162.817 1175.27 185.416C1107.63 254.961 1032.78 317.116 952.003 370.831" stroke="#8F8F8F" stroke-width="0.7736" stroke-miterlimit="10"/>
<path d="M1253.22 148.264C1235.59 165.972 1215.03 185.391 1191.31 205.936C1117.7 269.138 1037.58 324.332 952.297 370.587" stroke="#8F8F8F" stroke-width="0.7736" stroke-miterlimit="10"/>
<path d="M1272.32 175.951C1253.15 192.02 1230.95 209.507 1205.47 227.85C1126.49 284.2 1041.75 331.983 952.664 370.391" stroke="#8F8F8F" stroke-width="0.7736" stroke-miterlimit="10"/>
<path d="M1288.77 205.3C1268.28 219.559 1244.59 234.992 1217.57 250.988C1133.86 300.032 1045.18 340.025 953.006 370.294" stroke="#8F8F8F" stroke-width="0.7736" stroke-miterlimit="10"/>
<path d="M1302.59 235.824C1280.88 248.199 1255.91 261.456 1227.57 274.956C1139.81 316.304 1047.89 348.19 953.373 370.073" stroke="#8F8F8F" stroke-width="0.7736" stroke-miterlimit="10"/>
<path d="M1313.62 267.57C1290.88 277.94 1264.71 288.897 1235.37 299.805C1144.25 333.107 1049.85 356.621 953.763 369.951" stroke="#8F8F8F" stroke-width="0.7736" stroke-miterlimit="10"/>
<path d="M1321.73 300.172C1298.16 308.464 1271.22 317.048 1241.04 325.266C1147.31 350.264 1051.18 365.218 954.277 369.877" stroke="#8F8F8F" stroke-width="0.7736" stroke-miterlimit="10"/>
<path d="M1326.89 333.362C1302.69 339.525 1275.08 345.591 1244.17 351.118C1148.54 367.606 1051.41 373.878 954.448 369.829" stroke="#8F8F8F" stroke-width="0.7736" stroke-miterlimit="10"/>
<path d="M1329.07 366.894C1304.4 370.856 1276.35 374.475 1245.08 377.141C1148.39 384.996 1051.13 382.536 954.962 369.804" stroke="#8F8F8F" stroke-width="0.7736" stroke-miterlimit="10"/>
<path d="M1328.21 400.474C1303.3 402.211 1275.03 403.311 1243.66 403.165C1146.65 402.314 1050 391.148 955.353 369.853" stroke="#8F8F8F" stroke-width="0.7736" stroke-miterlimit="10"/>
<path d="M1324.38 433.86C1299.39 433.346 1271.17 431.903 1239.92 428.968C1143.38 419.435 1048.12 399.651 955.769 369.951" stroke="#8F8F8F" stroke-width="0.7736" stroke-miterlimit="10"/>
<path d="M1317.55 466.756C1292.71 464.016 1264.71 460.03 1233.88 454.282C1138.58 436.134 1045.48 407.889 956.16 370.024" stroke="#8F8F8F" stroke-width="0.7736" stroke-miterlimit="10"/>
<path d="M1307.8 498.918C1283.35 494.026 1255.79 487.471 1225.57 478.984C1132.31 452.35 1042.15 415.873 956.6 370.171" stroke="#8F8F8F" stroke-width="0.7736" stroke-miterlimit="10"/>
<path d="M1295.23 530.053C1271.27 522.911 1244.44 514.008 1215.1 502.855C1124.58 467.958 1038.03 423.538 956.894 370.342" stroke="#8F8F8F" stroke-width="0.7736" stroke-miterlimit="10"/>
<path d="M1279.9 559.94C1256.69 550.671 1230.75 539.396 1202.53 525.699C1115.5 482.834 1033.27 430.83 957.236 370.562" stroke="#8F8F8F" stroke-width="0.7736" stroke-miterlimit="10"/>
<path d="M1261.95 588.361C1239.65 577.061 1214.86 563.487 1187.99 547.271C1105.14 496.782 1027.91 437.62 957.578 370.783" stroke="#8F8F8F" stroke-width="0.7736" stroke-miterlimit="10"/>
<path d="M1241.53 615.044C1220.33 601.788 1196.84 586.061 1171.53 567.498C1093.54 509.776 1021.92 443.915 957.872 371.027" stroke="#8F8F8F" stroke-width="0.7736" stroke-miterlimit="10"/>
<path d="M1218.79 639.771C1198.96 624.681 1176.96 606.9 1153.36 586.135C1080.86 521.659 1015.43 449.649 958.165 371.321" stroke="#8F8F8F" stroke-width="0.7736" stroke-miterlimit="10"/>
<path d="M1194.07 662.37C1175.59 645.543 1155.29 625.879 1133.7 603.084C1067.23 532.366 1008.47 454.772 958.409 371.614" stroke="#8F8F8F" stroke-width="0.7736" stroke-miterlimit="10"/>
<path d="M1167.18 682.67C1150.28 664.253 1131.82 642.828 1112.36 618.199C1052.54 541.808 1001 459.271 958.63 371.981" stroke="#8F8F8F" stroke-width="0.7736" stroke-miterlimit="10"/>
<path d="M1138.69 700.451C1123.51 680.616 1107.03 657.625 1089.79 631.357C1037.06 549.899 993.134 463.067 958.751 372.323" stroke="#8F8F8F" stroke-width="0.7736" stroke-miterlimit="10"/>
<path d="M1108.71 715.64C1095.39 694.508 1081.03 670.123 1066.29 642.413C1021.06 556.569 985.088 466.152 958.996 372.69" stroke="#8F8F8F" stroke-width="0.7736" stroke-miterlimit="10"/>
<path d="M1077.51 728.064C1066.12 705.807 1054.02 680.249 1041.81 651.34C1004.47 561.781 976.747 468.504 959.119 373.082" stroke="#8F8F8F" stroke-width="0.7736" stroke-miterlimit="10"/>
<path d="M1045.31 737.652C1035.97 714.466 1026.19 687.929 1016.63 658.017C987.508 565.467 968.304 470.083 959.339 373.473" stroke="#8F8F8F" stroke-width="0.7736" stroke-miterlimit="10"/>
<path d="M1012.4 744.304C1005.06 720.36 997.728 693.065 990.955 662.419C970.157 567.618 959.502 470.872 959.167 373.815" stroke="#8F8F8F" stroke-width="0.7736" stroke-miterlimit="10"/>
<path d="M978.9 747.973C973.838 723.515 968.973 695.633 964.889 664.498C952.763 568.228 950.903 470.943 959.339 374.28" stroke="#8F8F8F" stroke-width="0.7736" stroke-miterlimit="10"/>
<path d="M945.426 748.633C942.565 723.809 940.218 695.609 938.946 664.253C935.46 567.276 942.296 470.203 959.339 374.671" stroke="#8F8F8F" stroke-width="0.7736" stroke-miterlimit="10"/>
<path d="M911.903 746.285C911.291 721.289 911.487 693.016 913.027 661.661C918.27 564.757 933.794 468.684 959.339 375.062" stroke="#8F8F8F" stroke-width="0.7736" stroke-miterlimit="10"/>
<path d="M878.648 740.929C880.286 715.982 883.001 687.831 887.353 656.745C901.203 560.71 925.236 466.423 959.045 375.479" stroke="#8F8F8F" stroke-width="0.7736" stroke-miterlimit="10"/>
<path d="M846.202 732.638C850.065 707.96 855.273 680.151 862.413 649.481C884.821 555.068 917.206 463.307 959.021 375.748" stroke="#8F8F8F" stroke-width="0.7736" stroke-miterlimit="10"/>
<path d="M814.537 721.363C820.576 697.125 828.278 670.001 838.108 640.089C868.885 548.068 909.369 459.586 958.874 376.139" stroke="#8F8F8F" stroke-width="0.7736" stroke-miterlimit="10"/>
<path d="M783.972 707.495C792.188 683.893 802.286 657.479 814.757 628.667C853.652 539.745 901.898 455.215 958.679 376.506" stroke="#8F8F8F" stroke-width="0.7736" stroke-miterlimit="10"/>
<path d="M754.801 690.839C765.095 668.069 777.517 642.657 792.53 615.02C839.245 529.979 894.867 450.148 958.458 376.873" stroke="#8F8F8F" stroke-width="0.7736" stroke-miterlimit="10"/>
<path d="M727.245 671.64C739.471 649.872 754.142 625.683 771.6 599.562C825.752 519.048 888.308 444.522 958.214 377.239" stroke="#8F8F8F" stroke-width="0.7736" stroke-miterlimit="10"/>
<path d="M701.522 650.044C715.704 629.45 732.478 606.68 752.137 582.222C813.293 506.889 882.283 438.273 957.945 377.533" stroke="#8F8F8F" stroke-width="0.7736" stroke-miterlimit="10"/>
<path d="M677.828 626.221C693.819 606.997 712.549 585.817 734.335 563.217C801.985 493.671 876.837 431.516 957.627 377.802" stroke="#8F8F8F" stroke-width="0.7736" stroke-miterlimit="10"/>
<path d="M656.384 600.369C674.013 582.662 694.553 563.242 718.295 542.697C791.9 479.487 872.023 424.292 957.309 378.046" stroke="#8F8F8F" stroke-width="0.7736" stroke-miterlimit="10"/>
<path d="M637.312 572.707C656.457 556.638 678.684 539.151 704.162 520.808C783.114 464.457 867.835 416.666 956.894 378.242" stroke="#8F8F8F" stroke-width="0.7736" stroke-miterlimit="10"/>
<path d="M620.807 543.431C641.321 529.147 665.015 513.714 692.034 497.743C775.74 448.695 864.428 408.701 956.6 378.438" stroke="#8F8F8F" stroke-width="0.7736" stroke-miterlimit="10"/>
<path d="M607.016 512.81C628.705 500.434 653.694 487.178 682.034 473.677C769.805 432.346 861.722 400.469 956.233 378.584" stroke="#8F8F8F" stroke-width="0.7736" stroke-miterlimit="10"/>
<path d="M595.989 481.064C618.728 470.669 644.892 459.736 674.234 448.828C765.351 415.523 859.751 392.009 955.842 378.683" stroke="#8F8F8F" stroke-width="0.7736" stroke-miterlimit="10"/>
<path d="M587.871 448.461C611.442 440.17 638.388 431.585 668.683 423.367C762.421 398.37 858.551 383.415 955.451 378.756" stroke="#8F8F8F" stroke-width="0.7736" stroke-miterlimit="10"/>
<path d="M582.785 415.272C606.992 409.108 634.598 403.043 665.504 397.515C761.102 381.023 858.184 374.751 955.108 378.805" stroke="#8F8F8F" stroke-width="0.7736" stroke-miterlimit="10"/>
<path d="M580.535 381.739C605.207 377.777 633.253 374.157 664.526 371.467C761.219 363.623 858.471 366.082 954.644 378.805" stroke="#8F8F8F" stroke-width="0.7736" stroke-miterlimit="10"/>
</mask>
<g mask="url(#mask0_297_234)">
<path d="M-78.8281 111.882H44.4219V138.882H-47.5781V185.632H33.1719V211.132H-47.5781V290.382H-78.8281V111.882ZM59.3652 111.882H187.865V138.882H90.6152V185.632H180.615V211.132H90.6152V263.382H189.615V290.382H59.3652V111.882ZM206.836 111.882H238.086V263.382H328.836V290.382H206.836V111.882ZM340.391 111.882H371.641V263.382H462.391V290.382H340.391V111.882ZM549.945 133.132C540.445 133.132 532.195 135.049 525.195 138.882C518.362 142.715 512.779 147.882 508.445 154.382C504.112 160.715 500.862 167.965 498.695 176.132C496.695 184.298 495.695 192.632 495.695 201.132C495.695 209.632 496.695 217.965 498.695 226.132C500.862 234.299 504.112 241.632 508.445 248.132C512.779 254.465 518.362 259.549 525.195 263.382C532.195 267.215 540.445 269.132 549.945 269.132C559.445 269.132 567.612 267.215 574.445 263.382C581.445 259.549 587.112 254.465 591.445 248.132C595.779 241.632 598.945 234.299 600.945 226.132C603.112 217.965 604.195 209.632 604.195 201.132C604.195 192.632 603.112 184.298 600.945 176.132C598.945 167.965 595.779 160.715 591.445 154.382C587.112 147.882 581.445 142.715 574.445 138.882C567.612 135.049 559.445 133.132 549.945 133.132ZM549.945 107.632C563.279 107.632 575.195 110.132 585.695 115.132C596.362 120.132 605.362 126.882 612.695 135.382C620.029 143.882 625.612 153.798 629.445 165.132C633.445 176.465 635.445 188.465 635.445 201.132C635.445 213.965 633.445 226.049 629.445 237.382C625.612 248.715 620.029 258.632 612.695 267.132C605.362 275.632 596.362 282.382 585.695 287.382C575.195 292.215 563.279 294.632 549.945 294.632C536.612 294.632 524.612 292.215 513.945 287.382C503.445 282.382 494.529 275.632 487.195 267.132C479.862 258.632 474.195 248.715 470.195 237.382C466.362 226.049 464.445 213.965 464.445 201.132C464.445 188.465 466.362 176.465 470.195 165.132C474.195 153.798 479.862 143.882 487.195 135.382C494.529 126.882 503.445 120.132 513.945 115.132C524.612 110.132 536.612 107.632 549.945 107.632ZM636.387 111.882H668.137L700.387 248.382H700.887L736.887 111.882H768.887L803.887 248.382H804.387L837.637 111.882H869.387L820.137 290.382H788.387L752.637 153.882H752.137L715.637 290.382H683.387L636.387 111.882ZM900.471 230.882C900.471 237.715 901.637 243.548 903.971 248.382C906.304 253.215 909.554 257.215 913.721 260.382C917.887 263.382 922.637 265.632 927.971 267.132C933.471 268.465 939.387 269.132 945.721 269.132C952.554 269.132 958.387 268.382 963.221 266.882C968.054 265.215 971.971 263.132 974.971 260.632C977.971 258.132 980.137 255.299 981.471 252.132C982.804 248.799 983.471 245.465 983.471 242.132C983.471 235.299 981.887 230.298 978.721 227.132C975.721 223.799 972.387 221.465 968.721 220.132C962.387 217.798 954.971 215.632 946.471 213.632C938.137 211.465 927.804 208.715 915.471 205.382C907.804 203.382 901.387 200.798 896.221 197.632C891.221 194.298 887.221 190.632 884.221 186.632C881.221 182.632 879.054 178.382 877.721 173.882C876.554 169.382 875.971 164.798 875.971 160.132C875.971 151.132 877.804 143.382 881.471 136.882C885.304 130.215 890.304 124.715 896.471 120.382C902.637 116.048 909.637 112.882 917.471 110.882C925.304 108.715 933.221 107.632 941.221 107.632C950.554 107.632 959.304 108.882 967.471 111.382C975.804 113.715 983.054 117.298 989.221 122.132C995.554 126.965 1000.55 132.965 1004.22 140.132C1007.89 147.132 1009.72 155.298 1009.72 164.632H978.471C977.637 153.132 973.721 145.048 966.721 140.382C959.721 135.548 950.804 133.132 939.971 133.132C936.304 133.132 932.554 133.549 928.721 134.382C924.887 135.049 921.387 136.298 918.221 138.132C915.054 139.798 912.387 142.132 910.221 145.132C908.221 148.132 907.221 151.882 907.221 156.382C907.221 162.715 909.137 167.715 912.971 171.382C916.971 174.882 922.137 177.548 928.471 179.382C929.137 179.548 931.721 180.298 936.221 181.632C940.887 182.798 946.054 184.132 951.721 185.632C957.387 187.132 962.887 188.632 968.221 190.132C973.721 191.465 977.637 192.465 979.971 193.132C985.804 194.965 990.887 197.465 995.221 200.632C999.554 203.798 1003.14 207.465 1005.97 211.632C1008.97 215.632 1011.14 219.965 1012.47 224.632C1013.97 229.298 1014.72 233.965 1014.72 238.632C1014.72 248.632 1012.64 257.215 1008.47 264.382C1004.47 271.382 999.137 277.132 992.471 281.632C985.804 286.132 978.221 289.382 969.721 291.382C961.221 293.549 952.554 294.632 943.721 294.632C933.554 294.632 923.971 293.382 914.971 290.882C905.971 288.382 898.137 284.549 891.471 279.382C884.804 274.215 879.471 267.632 875.471 259.632C871.471 251.465 869.387 241.882 869.221 230.882H900.471ZM1031.33 111.882H1062.58V182.882H1143.83V111.882H1175.08V290.382H1143.83V209.882H1062.58V290.382H1031.33V111.882ZM1202.5 111.882H1233.75V290.382H1202.5V111.882ZM1262.08 111.882H1340.83C1353.5 111.882 1363.83 113.715 1371.83 117.382C1379.83 121.048 1386 125.632 1390.33 131.132C1394.66 136.632 1397.58 142.632 1399.08 149.132C1400.75 155.632 1401.58 161.632 1401.58 167.132C1401.58 172.632 1400.75 178.632 1399.08 185.132C1397.58 191.465 1394.66 197.382 1390.33 202.882C1386 208.382 1379.83 212.965 1371.83 216.632C1363.83 220.132 1353.5 221.882 1340.83 221.882H1293.33V290.382H1262.08V111.882ZM1293.33 196.382H1339.08C1342.58 196.382 1346.16 195.882 1349.83 194.882C1353.5 193.882 1356.83 192.298 1359.83 190.132C1363 187.798 1365.5 184.798 1367.33 181.132C1369.33 177.299 1370.33 172.548 1370.33 166.882C1370.33 161.048 1369.5 156.215 1367.83 152.382C1366.16 148.548 1363.91 145.548 1361.08 143.382C1358.25 141.048 1355 139.465 1351.33 138.632C1347.66 137.798 1343.75 137.382 1339.58 137.382H1293.33V196.382Z" fill="white"/>
</g>
</svg>
